HIERARCHY
ROOT root
{
	OFFSET 0.000000 0.000000 0.000000
	CHANNELS 6 Xposition Yposition Zposition Zrotation Yrotation Xrotation
	JOINT lhip
	{
		OFFSET 0.058581 -0.082280 -0.017664
		CHANNELS 3 Zrotation Yrotation Xrotation
		JOINT lknee
		{
			OFFSET 0.043451 -0.386469 0.008037
			CHANNELS 3 Zrotation Yrotation Xrotation
			JOINT lankle
			{
				OFFSET -0.014790 -0.426874 -0.037428
				CHANNELS 3 Zrotation Yrotation Xrotation
				JOINT ltoe
				{
					OFFSET 0.041054 -0.060286 0.122042
					CHANNELS 3 Zrotation Yrotation Xrotation
					End Site
					{
						OFFSET 0.000000 0.000000 0.000000
					}
				}
			}
		}
	}
	JOINT rhip
	{
		OFFSET -0.060310 -0.090513 -0.013543
		CHANNELS 3 Zrotation Yrotation Xrotation
		JOINT rknee
		{
			OFFSET -0.043257 -0.383688 -0.004843
			CHANNELS 3 Zrotation Yrotation Xrotation
			JOINT rankle
			{
				OFFSET 0.019056 -0.420046 -0.034562
				CHANNELS 3 Zrotation Yrotation Xrotation
				JOINT rtoe
				{
					OFFSET -0.034840 -0.062106 0.130323
					CHANNELS 3 Zrotation Yrotation Xrotation
					End Site
					{
						OFFSET 0.000000 0.000000 0.000000
					}
				}
			}
		}
	}
	JOINT lowerback
	{
		OFFSET 0.004439 0.124404 -0.038385
		CHANNELS 3 Zrotation Yrotation Xrotation
		JOINT upperback
		{
			OFFSET 0.004488 0.137956 0.026820
			CHANNELS 3 Zrotation Yrotation Xrotation
			JOINT chest
			{
				OFFSET -0.002265 0.056032 0.002855
				CHANNELS 3 Zrotation Yrotation Xrotation
				JOINT lowerneck
				{
					OFFSET -0.013390 0.211636 -0.033468
					CHANNELS 3 Zrotation Yrotation Xrotation
					JOINT upperneck
					{
						OFFSET 0.010113 0.088937 0.050410
						CHANNELS 3 Zrotation Yrotation Xrotation
						End Site
						{
							OFFSET 0.000000 0.000000 0.000000
						}
					}
				}
				JOINT lclavicle
				{
					OFFSET 0.071702 0.114000 -0.018898
					CHANNELS 3 Zrotation Yrotation Xrotation
					JOINT lshoulder
					{
						OFFSET 0.122921 0.045205 -0.019046
						CHANNELS 3 Zrotation Yrotation Xrotation
						JOINT lelbow
						{
							OFFSET 0.255332 -0.015649 -0.022946
							CHANNELS 3 Zrotation Yrotation Xrotation
							JOINT lwrist
							{
								OFFSET 0.265709 0.012698 -0.007375
								CHANNELS 3 Zrotation Yrotation Xrotation
								End Site
								{
									OFFSET 0.000000 0.000000 0.000000
								}
							}
						}
					}
				}
				JOINT rclavicle
				{
					OFFSET -0.082954 0.112472 -0.023707
					CHANNELS 3 Zrotation Yrotation Xrotation
					JOINT rshoulder
					{
						OFFSET -0.113228 0.046853 -0.008472
						CHANNELS 3 Zrotation Yrotation Xrotation
						JOINT relbow
						{
							OFFSET -0.260127 -0.014369 -0.031269
							CHANNELS 3 Zrotation Yrotation Xrotation
							JOINT rwrist
							{
								OFFSET -0.269108 0.006794 -0.006027
								CHANNELS 3 Zrotation Yrotation Xrotation
								End Site
								{
									OFFSET 0.000000 0.000000 0.000000
								}
							}
						}
					}
				}
			}
		}
	}
}
MOTION
Frames: 15
Frame Time: 0.033333
0.213601 -0.077580 0.977037 133.034147 4.399281 89.115560 28.464178 13.867060 2.940291 2.051452 6.209077 29.662620 -28.607366 4.850740 23.902890 0.000000 -0.000000 0.000000 8.185300 10.297264 -18.783216 2.724138 6.801142 26.930228 2.571174 12.175926 -10.760489 0.000000 -0.000000 0.000000 -13.553763 -10.066580 12.746497 -1.187823 -25.869512 5.995361 -1.487095 -11.857751 -15.184337 -20.628788 58.881259 -6.106156 -1.617337 29.919292 -2.694858 32.875505 -59.135400 -39.934506 20.048137 -73.280373 -43.934240 7.809612 -21.115307 1.066926 10.960964 -20.429872 0.889976 -10.233999 17.960578 -17.626751 43.040939 30.485412 0.812867 -108.487572 37.686799 -68.576970 -44.200935 11.322148 -25.278150 
0.209733 -0.078190 0.977368 133.077837 4.379699 89.230141 28.355841 14.133507 2.582089 1.709510 5.833468 29.883311 -28.281064 4.581215 23.393928 0.000000 -0.000000 0.000000 8.120203 10.242559 -19.062266 2.646123 7.125108 26.785032 2.711397 11.828796 -10.375859 0.000000 -0.000000 0.000000 -13.652725 -9.983078 13.076241 -1.356295 -25.735455 5.962631 -1.503926 -11.791523 -15.027319 -20.672383 58.675780 -5.900164 -1.471349 30.210683 -2.788306 32.615524 -59.278320 -39.843977 19.381495 -73.392590 -43.210042 7.696603 -20.669232 1.163524 10.856692 -19.099734 1.115077 -10.504546 18.032321 -17.673627 43.331557 30.310131 1.044144 -107.983577 37.345742 -68.872647 -43.706986 9.957785 -25.743532 
0.203947 -0.079360 0.977567 133.461902 4.443756 89.330227 28.174474 14.324878 2.128815 1.471711 5.608432 30.116380 -27.841064 4.319358 21.925071 0.000000 -0.000000 0.000000 7.987856 10.257477 -19.446508 2.533673 7.056155 26.781403 2.818748 11.330615 -10.259559 0.000000 -0.000000 0.000000 -13.694898 -9.900027 13.527184 -1.421288 -25.562276 5.950107 -1.582104 -11.838668 -14.656448 -20.665298 58.823453 -5.854963 -1.591638 30.219348 -2.806099 31.964862 -59.360583 -39.231180 18.300289 -73.302696 -41.683172 7.443361 -20.317417 1.595502 10.029562 -17.582429 1.804194 -10.418181 18.242853 -17.681893 44.090124 30.540431 1.728091 -106.601139 37.204620 -68.552389 -43.571362 8.378425 -26.886040 
0.196474 -0.080593 0.977405 134.214198 4.440991 89.474744 27.770636 14.484195 1.661493 1.291570 5.492511 30.163506 -27.265164 3.525836 19.529599 0.000000 -0.000000 0.000000 7.785626 10.370978 -19.908300 2.015600 6.721624 26.707164 3.006744 10.785100 -10.430482 0.000000 -0.000000 0.000000 -13.775423 -9.758791 14.208403 -1.437263 -25.470329 5.875638 -1.463679 -11.847634 -14.394111 -20.359110 58.727476 -5.425096 -1.529039 29.992708 -2.608298 31.295092 -59.036065 -38.541069 15.639344 -73.427451 -39.511111 7.196896 -19.525738 1.667157 8.924052 -16.411712 2.156989 -10.363333 18.462012 -17.618481 45.710405 31.061323 2.857532 -104.718125 37.108417 -67.792325 -43.226727 7.190341 -28.181445 
0.186829 -0.081754 0.977115 135.882211 4.445050 89.519699 27.031069 14.280159 1.045396 0.906600 5.047007 29.940797 -25.235725 2.718420 15.483470 0.000000 -0.000000 0.000000 7.176222 9.894521 -20.420283 1.892170 6.226070 26.784284 3.249247 10.138005 -10.524053 0.000000 -0.000000 0.000000 -13.835334 -9.480167 15.520157 -1.230188 -25.600151 5.547287 -1.276735 -11.921064 -13.907294 -19.315352 58.474979 -4.376224 -1.604551 29.786582 -2.312212 30.269468 -59.458599 -37.456672 12.535843 -73.165627 -36.620944 6.407445 -18.457986 3.593394 8.374340 -15.501931 3.232469 -10.001791 18.989560 -17.630208 47.352729 31.247414 3.831546 -102.726139 36.779789 -66.525700 -42.839284 5.849268 -28.864775 
0.175434 -0.083558 0.976652 137.995174 4.519013 89.789326 26.337965 14.557744 0.076060 0.552301 5.526540 29.574758 -22.647226 2.279893 10.892278 0.000000 -0.000000 0.000000 6.368657 9.298772 -21.123708 1.804569 5.223356 26.558663 3.696920 9.449408 -10.466492 0.000000 -0.000000 0.000000 -13.865483 -9.171652 16.481729 -0.913231 -25.569011 5.578273 -0.989314 -12.010389 -13.229157 -18.220920 58.049939 -2.996803 -1.953373 29.580176 -1.960758 28.866015 -59.384767 -35.531755 9.328959 -73.007088 -34.234198 6.225452 -18.200471 4.119103 7.494110 -13.788122 2.528194 -9.502462 18.903162 -17.546836 49.718137 31.918030 5.585771 -100.052431 36.743051 -65.788358 -42.259771 4.316946 -31.293393 
0.162246 -0.085867 0.975702 140.559533 4.732874 90.118609 25.643804 15.046043 -0.884371 0.669676 7.050582 28.692057 -20.539183 1.613174 6.539340 0.000000 -0.000000 0.000000 5.521022 8.427550 -21.797042 1.732856 4.165096 26.248810 3.982177 8.773837 -10.201518 0.000000 -0.000000 0.000000 -13.167780 -9.178497 17.906929 -0.420016 -25.372645 5.140188 -0.776779 -12.514127 -12.112308 -19.895551 57.536580 -4.755061 -1.955131 29.349854 -1.159772 26.970192 -57.544100 -33.963151 3.583293 -74.141674 -30.159302 6.096078 -17.489760 6.300865 5.645344 -11.707327 1.347373 -8.896813 18.877802 -17.171825 52.527742 33.681554 7.497299 -97.251291 36.612730 -63.773296 -41.929791 2.411591 -32.345725 
0.147108 -0.088734 0.974533 143.716103 4.857375 90.536880 24.745909 15.421140 -1.964884 0.549397 8.275733 27.385289 -18.264700 0.493158 1.990426 0.000000 -0.000000 0.000000 4.333062 7.338546 -22.420776 1.638918 2.699969 25.609230 4.866619 8.011416 -9.754145 0.000000 -0.000000 0.000000 -12.801521 -8.616291 19.101778 0.150888 -25.143091 5.304382 -0.402684 -12.600379 -11.381703 -18.311269 56.522727 -3.353935 -1.814713 28.644628 -0.551088 24.430827 -57.711206 -31.193212 -1.051775 -74.445217 -26.363515 5.610755 -15.982806 7.937934 4.484700 -11.020527 1.547068 -7.476508 19.363308 -16.347903 54.688447 34.076840 9.055320 -94.302536 36.151122 -62.468689 -40.941757 1.350358 -33.780510 
0.129265 -0.092497 0.972544 147.601275 4.945303 91.336747 23.565978 15.696359 -4.042405 0.290435 9.847393 26.010974 -15.865168 0.284905 -2.005185 0.000000 -0.000000 0.000000 2.698949 6.165791 -23.598200 1.613910 0.520062 25.242970 5.348952 7.203057 -9.522320 0.000000 -0.000000 0.000000 -12.130544 -8.066543 20.022795 0.971021 -25.107635 5.682393 -0.080789 -12.319626 -10.768522 -15.116652 55.583373 -0.296557 -2.509450 27.322741 -0.216697 21.825379 -58.412228 -27.960889 -6.462915 -73.930259 -21.953195 5.617296 -15.034819 8.284282 3.485751 -9.971921 1.750766 -5.470945 19.840831 -15.061753 56.549165 34.475993 10.357520 -90.887084 35.867374 -61.335912 -40.546968 -0.266052 -35.564139 
0.109615 -0.097152 0.970551 152.273524 4.902855 92.336805 21.797234 15.117087 -6.747744 -0.039414 10.269103 24.821165 -13.358357 -0.151659 -5.706995 0.000000 -0.000000 0.000000 0.982125 4.753501 -24.691101 1.171863 -1.704568 24.875335 5.942784 5.956805 -9.291460 0.000000 -0.000000 0.000000 -10.857654 -7.583051 20.589604 1.825534 -24.852026 5.917001 0.278597 -12.572527 -9.777344 -13.181036 53.381516 1.724964 -2.677983 26.283025 0.258187 18.428209 -58.079209 -24.913895 -15.531494 -73.660925 -14.472634 5.207589 -13.854897 9.552527 3.003123 -8.977356 1.061255 -3.975341 20.196691 -13.875968 59.550196 35.039968 12.282102 -86.635736 35.301762 -59.405057 -40.597754 -1.700361 -37.713553 
0.088009 -0.101920 0.968404 157.987414 4.536614 93.200404 19.622534 13.924003 -10.130789 -0.426203 11.079430 24.076406 -10.317468 -0.084721 -8.294300 0.000000 -0.000000 0.000000 -1.251558 3.212583 -25.172322 0.566555 -4.307323 24.448463 6.184262 4.111822 -9.177763 0.000000 -0.000000 0.000000 -9.194438 -6.902789 21.169393 2.913064 -24.590163 6.320316 0.666474 -12.389078 -8.566403 -11.920900 50.184104 2.880827 -2.620910 24.297555 0.907965 15.477842 -58.082995 -22.178606 -24.621673 -73.127325 -6.696776 4.658032 -12.253841 9.791043 3.657577 -7.941914 1.409414 -2.484332 20.886778 -13.294478 62.184161 33.652327 14.272293 -83.978584 34.383260 -59.545805 -40.269583 -3.666804 -38.341350 
0.064865 -0.106188 0.966609 165.252525 3.869610 93.633729 16.957806 12.420206 -13.435622 -0.858866 10.867799 23.254962 -7.794374 -0.406165 -10.337398 0.000000 -0.000000 0.000000 -3.700447 1.306484 -24.516962 -0.506020 -6.672613 24.145573 6.568323 1.665908 -9.480441 0.000000 -0.000000 0.000000 -6.843376 -6.493202 21.377620 4.126331 -24.504837 6.823417 0.960900 -12.486140 -7.172424 -10.510864 45.664991 4.886671 -2.947762 22.207058 0.920803 11.132541 -57.853436 -18.013262 -33.298730 -71.722564 0.483077 4.188998 -10.987779 11.398234 4.185558 -6.552255 1.650627 -0.844918 21.495151 -12.053640 64.845277 32.519209 15.980635 -79.701908 34.132081 -58.321071 -40.165255 -5.425860 -40.623398 
0.040400 -0.110114 0.964957 174.074092 2.627406 93.544084 13.424363 10.527647 -16.503335 -1.319884 8.782865 22.772490 -5.076107 -1.832172 -11.177596 0.000000 -0.000000 0.000000 -6.837413 -1.228451 -22.871216 -1.698366 -9.419033 24.574848 6.435777 -1.264023 -9.646183 0.000000 -0.000000 0.000000 -4.071247 -5.637597 20.496567 5.514133 -24.509700 8.507637 1.574859 -12.861320 -6.356862 -9.320756 39.580285 7.282087 -3.263518 19.645107 0.743498 5.096396 -58.104913 -12.641527 -40.515464 -69.580503 5.903628 3.555376 -8.737100 12.234356 4.776775 -5.425739 2.829185 0.723232 21.953729 -10.830091 66.984769 30.395918 17.260001 -73.959079 34.207618 -57.210249 -40.514376 -8.100982 -42.351423 
0.016718 -0.112563 0.964275 -176.272188 1.097370 92.822041 9.970016 7.538502 -18.548323 -2.534324 3.014945 22.599778 -4.573797 -4.131657 -11.027391 0.000000 -0.000000 0.000000 -10.319704 -4.342364 -19.956949 -3.203843 -11.940441 25.848075 6.732898 -2.928524 -9.286460 0.000000 -0.000000 0.000000 -0.302756 -5.286725 18.507263 6.183607 -24.491736 9.651562 1.578508 -12.160523 -5.920327 -7.567664 32.028456 11.194714 -2.857032 16.462067 0.430845 -0.787261 -56.956524 -7.199430 -51.970605 -65.734865 14.213537 2.938733 -6.479484 14.255352 6.352922 -3.805407 2.999056 1.800269 22.219854 -8.874232 70.649860 26.829805 17.635892 -66.032226 35.237718 -53.835908 -38.979932 -10.754595 -46.318513 
-0.004858 -0.113905 0.966941 -166.291483 -0.734499 91.708439 6.811523 3.345837 -19.455335 -4.592781 -2.017733 22.502842 -4.295107 -5.755939 -10.306050 0.000000 -0.000000 0.000000 -14.118875 -5.705641 -15.933998 -4.941419 -14.099095 27.345574 6.982538 -4.846383 -8.006149 0.000000 -0.000000 0.000000 2.735154 -4.150957 14.724504 7.247928 -23.733378 10.797891 2.071909 -11.136216 -5.678834 -6.825210 22.832299 16.683857 -2.283409 12.404623 -1.133987 -7.454497 -55.099092 -0.170586 -60.392837 -59.770434 19.736658 3.144190 -6.073699 16.434826 6.097777 -0.980928 4.074485 3.482884 23.321288 -5.663755 74.084689 23.307661 17.241129 -56.459460 34.501603 -49.474736 -35.835721 -13.312647 -51.256216 
